<?xml version="1.0" encoding="utf-8"?>
<!-- Generator: Adobe Illustrator 23.0.1, SVG Export Plug-In . SVG Version: 6.00 Build 0)  -->
<svg version="1.1" id="Layer_1" xmlns="https://www.w3.org/2000/svg" xmlns:xlink="https://www.w3.org/1999/xlink" x="0px" y="0px"
	 viewBox="0 0 512 512" style="enable-background:new 0 0 512 512;" xml:space="preserve">
<style type="text/css">
	.st0{fill:#BF1850;}
	.st1{fill:#FFFFFF;}
</style>
<path class="st0" d="M75,512h362c41.4,0,75-33.6,75-75V75c0-41.4-33.6-75-75-75H75C33.6,0,0,33.6,0,75v362C0,478.4,33.6,512,75,512z
	"/>
<path class="st1" d="M256,361c57.9,0,105-47.1,105-105s-47.1-105-105-105s-105,47.1-105,105S198.1,361,256,361z"/>
<path class="st1" d="M422.5,114.2c16.1,0,29.3-13.1,29.3-29.3s-13.1-29.3-29.3-29.3s-29.3,13.1-29.3,29.3S406.4,114.2,422.5,114.2z"
	/>
</svg>
